<?xml version="1.0" encoding="UTF-8" standalone="no"?>
<svg
   viewBox="0 0 640 613"
   version="1.1"
   id="svg1"
   sodipodi:docname="swimmerusa.svg"
   inkscape:version="1.3 (0e150ed, 2023-07-21)"
   width="640"
   height="613"
   xmlns:inkscape="http://www.inkscape.org/namespaces/inkscape"
   xmlns:sodipodi="http://sodipodi.sourceforge.net/DTD/sodipodi-0.dtd"
   xmlns="http://www.w3.org/2000/svg"
   xmlns:svg="http://www.w3.org/2000/svg">
  <defs
     id="defs1" />
  <sodipodi:namedview
     id="namedview1"
     pagecolor="#ffffff"
     bordercolor="#666666"
     borderopacity="1.0"
     inkscape:showpageshadow="2"
     inkscape:pageopacity="0.0"
     inkscape:pagecheckerboard="0"
     inkscape:deskcolor="#d1d1d1"
     inkscape:zoom="0.70530026"
     inkscape:cx="306.96146"
     inkscape:cy="289.23852"
     inkscape:window-width="1368"
     inkscape:window-height="751"
     inkscape:window-x="61"
     inkscape:window-y="38"
     inkscape:window-maximized="0"
     inkscape:current-layer="svg1" />
  <!-- Font Awesome Pro 5.15.4 by @fontawesome - https://fontawesome.com License - https://fontawesome.com/license (Commercial License) -->
  <path
     d="m 422.53077,321.78008 c -2.78364,2.70725 -12.0074,7.8228 -27.0422,7.8228 -15.03481,0 -24.26643,-5.11555 -27.0422,-7.8228 -12.59717,-12.26569 -27.12872,-18.75148 -42.0377,-18.75148 h -12.81733 c -14.909,0 -29.44842,6.48579 -42.03771,18.75148 -2.78364,2.70725 -12.0074,7.8228 -27.04221,7.8228 -15.0348,0 -24.26643,-5.11555 -27.04221,-7.8228 -11.685,-11.38541 -25.06849,-17.53902 -38.83729,-18.40268 l 88.73052,-66.93395 -14.15411,-10.67954 c -2.86227,-2.14254 -6.51088,-2.92317 -9.9236,-2.16745 l -78.90914,17.8795 c -20.37406,4.59237 -40.4493,-9.11 -44.82134,-30.62685 -4.36419,-21.52517 8.61041,-42.71815 29.00019,-47.33542 l 78.90915,-17.87951 c 24.1642,-5.46434 49.5551,0.0997 69.6382,15.26359 l 62.92287,47.47661 c 8.16221,6.13699 15.22353,13.65252 21.01099,22.37222 l 53.96647,81.41691 c -4.30128,2.68234 -8.5082,5.75499 -12.47135,9.61657 z M 80.952855,356.17716 h 12.58143 c 20.476265,0 36.014335,-6.99236 44.105765,-14.865 6.99842,-6.81795 15.45943,-11.70928 24.982,-11.70928 h 12.81733 c 9.52257,0 17.98358,4.89133 24.982,11.70928 8.0757,7.87264 23.61377,14.865 44.09004,14.865 20.47628,0 36.01434,-6.99236 44.10577,-14.865 6.99842,-6.81795 15.45943,-11.70928 24.982,-11.70928 h 12.81734 c 9.52256,0 17.98358,4.89133 24.982,11.70928 8.07571,7.87264 23.61377,14.865 44.09005,14.865 20.47627,0 36.01434,-6.99236 44.10577,-14.865 6.99842,-6.81795 15.45943,-11.70928 24.982,-11.70928 h 12.81733 c 9.52256,0 17.98357,4.89133 24.98199,11.70928 8.0757,7.87264 23.61376,14.865 44.09005,14.865 h 12.58142 c 6.95124,0 12.58143,5.94598 12.58143,13.28712 v 26.57427 c 0,7.34114 -5.63019,13.28714 -12.58143,13.28714 h -12.58142 c -30.36842,0 -57.18259,-10.12314 -75.48857,-26.4414 -18.30598,16.32656 -45.12015,26.4414 -75.48857,26.4414 -30.36843,0 -57.1826,-10.12314 -75.48858,-26.4414 -18.30597,16.32656 -45.12014,26.4414 -75.48857,26.4414 -30.36842,0 -57.18259,-10.12314 -75.48857,-26.4414 -18.30598,16.32656 -45.12015,26.4414 -75.488575,26.4414 h -12.58143 c -6.95124,0 -12.58143,-5.946 -12.58143,-13.28714 v -26.57427 c 0,-7.34114 5.63019,-13.28712 12.58143,-13.28712 z M 483.55857,276.45433 c -34.74047,0 -62.90715,-29.74656 -62.90715,-66.43567 0,-36.68911 28.16668,-66.43569 62.90715,-66.43569 34.74047,0 62.90714,29.74658 62.90714,66.43569 0,36.68911 -28.16667,66.43567 -62.90714,66.43567 z"
     id="path1"
     style="stroke-width:0.999995" />
  <text
     xml:space="preserve"
     style="font-style:normal;font-weight:normal;font-size:230.108px;line-height:1.25;font-family:sans-serif;fill:#000000;fill-opacity:1;stroke:none;stroke-width:0.999997"
     x="51.221107"
     y="613.15741"
     id="text1"
     transform="scale(1.0027032,0.99730405)"><tspan
       sodipodi:role="line"
       id="tspan1"
       x="51.221107"
       y="613.15741"
       style="font-style:normal;font-variant:normal;font-weight:normal;font-stretch:normal;font-size:230.108px;font-family:'Arial Black';-inkscape-font-specification:'Arial Black, ';stroke-width:0.999997">USA</tspan></text>
</svg>
