<?xml version="1.0" encoding="UTF-8" standalone="no"?>
<svg
   viewBox="0 0 640 613"
   version="1.1"
   id="svg1"
   sodipodi:docname="swimmeresp.svg"
   inkscape:version="1.3 (0e150ed, 2023-07-21)"
   width="640"
   height="613"
   xmlns:inkscape="http://www.inkscape.org/namespaces/inkscape"
   xmlns:sodipodi="http://sodipodi.sourceforge.net/DTD/sodipodi-0.dtd"
   xmlns="http://www.w3.org/2000/svg"
   xmlns:svg="http://www.w3.org/2000/svg">
  <defs
     id="defs1" />
  <sodipodi:namedview
     id="namedview1"
     pagecolor="#ffffff"
     bordercolor="#666666"
     borderopacity="1.0"
     inkscape:showpageshadow="2"
     inkscape:pageopacity="0.0"
     inkscape:pagecheckerboard="0"
     inkscape:deskcolor="#d1d1d1"
     inkscape:zoom="0.70530026"
     inkscape:cx="306.96146"
     inkscape:cy="289.23852"
     inkscape:window-width="1368"
     inkscape:window-height="751"
     inkscape:window-x="61"
     inkscape:window-y="38"
     inkscape:window-maximized="0"
     inkscape:current-layer="svg1" />
  <!-- Font Awesome Pro 5.15.4 by @fontawesome - https://fontawesome.com License - https://fontawesome.com/license (Commercial License) -->
  <path
     d="m 422.53077,309.03613 c -2.78364,2.75058 -12.0074,7.94801 -27.0422,7.94801 -15.03481,0 -24.26643,-5.19743 -27.0422,-7.94801 -12.59717,-12.46201 -27.12872,-19.05162 -42.0377,-19.05162 h -12.81733 c -14.909,0 -29.44842,6.58961 -42.03771,19.05162 -2.78364,2.75058 -12.0074,7.94801 -27.04221,7.94801 -15.0348,0 -24.26643,-5.19743 -27.04221,-7.94801 -11.685,-11.56764 -25.06849,-17.81975 -38.83729,-18.69723 l 88.73052,-68.0053 -14.15411,-10.85047 c -2.86227,-2.17684 -6.51088,-2.96996 -9.9236,-2.20215 l -78.90914,18.16568 c -20.37406,4.66588 -40.4493,-9.25581 -44.82134,-31.11706 -4.36419,-21.8697 8.61041,-43.4019 29.00019,-48.09307 l 78.90915,-18.16569 c 24.1642,-5.5518 49.5551,0.10129 69.6382,15.5079 l 62.92287,48.23652 c 8.16221,6.23522 15.22353,13.87104 21.01099,22.73031 l 53.96647,82.72007 c -4.30128,2.72527 -8.5082,5.8471 -12.47135,9.77049 z M 80.952859,343.98377 h 12.58143 c 20.476261,0 36.014331,-7.10428 44.105761,-15.10293 6.99842,-6.92708 15.45943,-11.8967 24.982,-11.8967 h 12.81733 c 9.52257,0 17.98358,4.96962 24.982,11.8967 8.0757,7.99865 23.61377,15.10293 44.09004,15.10293 20.47628,0 36.01434,-7.10428 44.10577,-15.10293 6.99842,-6.92708 15.45943,-11.8967 24.982,-11.8967 h 12.81734 c 9.52256,0 17.98358,4.96962 24.982,11.8967 8.07571,7.99865 23.61377,15.10293 44.09005,15.10293 20.47627,0 36.01434,-7.10428 44.10577,-15.10293 6.99842,-6.92708 15.45943,-11.8967 24.982,-11.8967 h 12.81733 c 9.52256,0 17.98357,4.96962 24.98199,11.8967 8.0757,7.99865 23.61376,15.10293 44.09005,15.10293 h 12.58142 c 6.95124,0 12.58143,6.04115 12.58143,13.49979 v 26.99962 c 0,7.45864 -5.63019,13.49982 -12.58143,13.49982 h -12.58142 c -30.36842,0 -57.18259,-10.28518 -75.48857,-26.86463 -18.30598,16.58789 -45.12015,26.86463 -75.48857,26.86463 -30.36843,0 -57.1826,-10.28518 -75.48858,-26.86463 -18.30597,16.58789 -45.12014,26.86463 -75.48857,26.86463 -30.36842,0 -57.18259,-10.28518 -75.48857,-26.86463 C 150.71688,387.70626 123.90271,397.983 93.53429,397.983 H 80.95286 c -6.95124,0 -12.58143,-6.04118 -12.58143,-13.49982 v -26.99962 c 0,-7.45864 5.63019,-13.49979 12.581429,-13.49979 z M 483.55857,262.9849 c -34.74047,0 -62.90715,-30.22269 -62.90715,-67.49904 0,-37.27636 28.16668,-67.49906 62.90715,-67.49906 34.74047,0 62.90714,30.2227 62.90714,67.49906 0,37.27635 -28.16667,67.49904 -62.90714,67.49904 z"
     id="path1"
     style="stroke-width:0.999995" />
  <text
     xml:space="preserve"
     style="font-style:normal;font-weight:normal;font-size:233.799px;line-height:1.25;font-family:sans-serif;fill:#000000;fill-opacity:1;stroke:none;stroke-width:0.999997"
     x="64.862259"
     y="621.25104"
     id="text1"
     transform="scale(1.0181159,0.98220648)"><tspan
       sodipodi:role="line"
       id="tspan1"
       x="64.862259"
       y="621.25104"
       style="font-style:normal;font-variant:normal;font-weight:normal;font-stretch:normal;font-size:233.799px;font-family:'Arial Black';-inkscape-font-specification:'Arial Black, ';stroke-width:0.999997">ESP</tspan></text>
</svg>
